# xmcd
#
# Track frame offsets: 
#        150
#        16065
#        35455
#        51767
#        64462
#        76792
#        97255
#        114720
#        130647
#        143452
#
# Disc length: 2141 seconds
#
# Revision: 9
# Processed by: cddbd v1.5.2PL0 Copyright (c) Steve Scherf et al.
# Submitted via: ExactAudioCopy v1.1
#
DISCID=7e085b0a
DTITLE=Queen - The Game [2061-62208-2]
DYEAR=1980
DGENRE=Rock
TTITLE0=Play The Game
TTITLE1=Dragon Attack
TTITLE2=Another One Bites The Dust
TTITLE3=Need Your Loving Tonight
TTITLE4=Crazy Little Thing Called Love
TTITLE5=Rock It (Prime Jive)
TTITLE6=Don't Try Suicide
TTITLE7=Sail Away Sweet Sister
TTITLE8=Coming Soon
TTITLE9=Save Me
EXTD=YEAR: 1980
EXTT0=
EXTT1=
EXTT2=
EXTT3=
EXTT4=
EXTT5=
EXTT6=
EXTT7=
EXTT8=
EXTT9=
PLAYORDER=
